<svg xmlns="http://www.w3.org/2000/svg" width="45.212" height="60.21" viewBox="938.12 2496.54 45.212 60.21"><g data-name="Group 1029" fill="#fff" fill-rule="evenodd"><path d="M963.547 2515.596h1.25a1.843 1.843 0 1 0 0-3.686h-1.25a1.843 1.843 0 1 0 0 3.686Z" data-name="Path 3218"/><path d="M957.406 2511.91h-1.252a1.843 1.843 0 1 0 0 3.686h1.252a1.842 1.842 0 1 0 0-3.686Z" data-name="Path 3217"/><path d="M981.658 2534.969c-2.397-2.729-10.087-4.712-10.957-4.93a1.505 1.505 0 0 0-1.692.76l-3.63 6.912-.994-4.922c2.33-.874 3.833-2.328 3.92-2.416a1.5 1.5 0 0 0 .437-1.037l.07-4.981a10.265 10.265 0 0 0 1.675-2.51c1.366-.691 2.194-2.324 2.308-4.624.053-1.074.118-2.368-.657-3.454.293-3.842-.658-7.223-2.709-9.575-1.891-2.17-4.635-3.358-7.972-3.437l-1.208.002c-.016 0-.028.008-.043.008-1.495-.02-5.815-.364-8.022-3.576a1.539 1.539 0 0 0-1.407-.642 1.502 1.502 0 0 0-1.227.94c-.117.297-2.711 7.069.377 11.413-.366 1.51-.492 3.14-.36 4.864-.78 1.088-.713 2.382-.659 3.456.113 2.305.941 3.94 2.31 4.627a10.289 10.289 0 0 0 1.671 2.508l.07 4.981c.007.414.183.807.489 1.087.09.083 1.618 1.43 3.884 2.296l-1.074 5.316-3.801-7.237a1.504 1.504 0 0 0-1.692-.759c-.87.218-8.56 2.201-10.958 4.93-1.818 2.068-2.3 10.428-.784 12.333 3.98 5.871 14.073 9.392 21.614 9.443.009 0 .016.005.024.005l.072-.002.072.002c.008 0 .015-.005.023-.005 7.542-.05 17.633-3.571 21.548-9.353 1.583-1.995 1.101-10.355-.718-12.423Zm-25.775-11.258a1.524 1.524 0 0 0-.494-1.091 7.265 7.265 0 0 1-1.614-2.423 1.501 1.501 0 0 0-1.124-1.004c-.314-.065-.682-.832-.746-2.123-.055-1.12-.014-1.474.193-1.651.38-.325.573-.815.518-1.31-.191-1.69-.104-3.26.26-4.665.073-.277.038-.547-.04-.803a1.48 1.48 0 0 0-.298-1.237c-1.364-1.642-1.269-4.326-.867-6.404 3.614 2.907 8.463 2.793 9.174 2.758h.576c2.47.057 4.404.867 5.746 2.407 1.61 1.846 2.294 4.668 1.923 7.944-.056.494.137.982.514 1.307.207.179.249.534.194 1.656-.065 1.29-.435 2.056-.751 2.121a1.503 1.503 0 0 0-1.12 1.01 7.165 7.165 0 0 1-1.576 2.38c-2.152 1.703-3.759 1.62-5.17 1.555a14.648 14.648 0 0 0-.777-.027 1.501 1.501 0 1 0 0 3.003c.192 0 .402.01.628.021.3.016.641.032 1.017.032a9.176 9.176 0 0 0 3.732-.756l-.031 2.212c-.787.621-2.582 1.817-4.77 1.817-2.221 0-4.164-1.217-5.03-1.854l-.067-4.875Zm4.377 9.672c.24.02.472.06.72.06.161 0 .308-.031.467-.04l1.719 8.52-2.433 4.631-2.263-4.306 1.79-8.865Zm19.698 12.233c-.477.703-1.104 1.382-1.83 2.033v-5.45a1.5 1.5 0 1 0-3.003 0v7.607c-3.996 2.347-9.411 3.925-14.392 3.94-4.976-.015-10.386-1.59-14.392-3.949v-7.599a1.5 1.5 0 1 0-3.003 0v5.44c-.743-.664-1.385-1.358-1.873-2.078-.72-1.23-.278-7.588.596-8.61 1.185-1.347 5.322-2.854 8.296-3.695l9.059 17.245c.006.012.017.019.023.03a1.446 1.446 0 0 0 .427.473c.055.04.095.096.158.13.057.03.119.03.178.051.074.03.147.049.224.066a1.443 1.443 0 0 0 .847-.069c.055-.021.115-.02.169-.049.06-.032.098-.085.152-.124a1.478 1.478 0 0 0 .433-.478c.005-.011.017-.018.023-.03l3.858-7.343c.128-.157.223-.334.279-.532l4.922-9.37c2.973.84 7.11 2.345 8.294 3.695.875 1.022 1.317 7.38.555 8.666Z" data-name="Path 3216"/></g></svg>