<svg xmlns="http://www.w3.org/2000/svg" width="53.215" height="50" viewBox="934.242 2073.543 53.215 50"><g data-name="Group 1020" fill="#fff" fill-rule="evenodd"><path d="M968.9 2108.7a3.049 3.049 0 0 1 1.9 2.828 1.282 1.282 0 1 0 2.566 0c0-2.289-1.37-4.33-3.49-5.2a1.282 1.282 0 1 0-.975 2.372Z" data-name="Path 3201"/><path d="M949.616 2112.811c.71 0 1.283-.574 1.283-1.283 0-1.244.746-2.353 1.898-2.825a1.283 1.283 0 1 0-.97-2.375 5.6 5.6 0 0 0-3.493 5.2c0 .71.574 1.283 1.282 1.283Z" data-name="Path 3200"/><path d="M976.668 2115.156h-10.236c-.743 0-1.347.56-1.363 1.255h-8.44c-.016-.695-.62-1.255-1.363-1.255h-10.234c-.753 0-1.362.575-1.362 1.283 0 .709.61 1.283 1.362 1.283h8.87c.017.696.62 1.255 1.364 1.255h11.166c.743 0 1.347-.56 1.363-1.255h8.873c.753 0 1.363-.574 1.363-1.283 0-.708-.61-1.283-1.363-1.283Z" data-name="Path 3199"/><path d="M986.123 2114.818h-2.67v-20.526c0-6.133-4.036-7.421-7.422-7.421h-8.776v-3.881c0-5.36-5.365-9.04-5.668-9.245-.449-.299-1.1-.253-1.551.05-.227.155-5.591 3.835-5.591 9.195v3.88h-7.692c-5.17 0-8.51 2.914-8.51 7.422v20.526h-2.668c-.736 0-1.333.597-1.333 1.333v2.48c0 2.318 2.17 4.912 5.074 4.912l43.878-.003c2.929 0 4.263-2.544 4.263-4.908v-2.481c0-.736-.597-1.333-1.334-1.333Zm-1.333 3.814c0 .23-.045 2.241-1.596 2.241l-43.878.002c-1.374 0-2.407-1.361-2.407-2.243v-1.147h2.668c.737 0 1.333-.597 1.333-1.334v-21.86c0-3.02 2.13-4.753 5.843-4.753h7.692v2.796c0 .15-.325.534-.612.874-1.085 1.287-2.725 3.233-2.725 7.969 0 .645.46 1.196 1.096 1.311.26.048.572.077.922.077 1.788 0 4.529-.764 6.159-3.752a1.335 1.335 0 0 0-2.342-1.278c-.897 1.646-2.185 2.167-3.114 2.313.239-2.782 1.228-3.954 2.043-4.92.61-.723 1.24-1.47 1.24-2.594v-9.344c0-2.95 2.462-5.389 3.742-6.458 1.241 1.03 3.734 3.47 3.734 6.458v9.342c0 1.124.63 1.873 1.24 2.595.814.965 1.802 2.136 2.041 4.912-.928-.151-2.223-.673-3.113-2.305a1.334 1.334 0 0 0-2.342 1.278c1.95 3.572 5.486 3.966 7.083 3.674a1.333 1.333 0 0 0 1.094-1.311c0-4.736-1.64-6.68-2.724-7.967-.287-.34-.612-.726-.612-.876v-2.794h8.776c3.422 0 4.756 1.332 4.756 4.754v21.859c0 .737.597 1.334 1.333 1.334h2.67v1.147Z" data-name="Path 3198"/><path d="M955.876 2112.696c.708 0 1.283-.574 1.283-1.282a3.697 3.697 0 0 1 3.692-3.695 3.696 3.696 0 0 1 3.691 3.695 1.283 1.283 0 1 0 2.566 0 6.269 6.269 0 0 0-4.977-6.127v-6.014a1.282 1.282 0 1 0-2.566 0v6.017c-2.836.595-4.972 3.113-4.972 6.124 0 .708.574 1.282 1.283 1.282Z" data-name="Path 3197"/></g></svg>