<svg xmlns="http://www.w3.org/2000/svg" width="28.681" height="28.681" viewBox="1204.5 7715.319 28.681 28.681"><path d="M1210.268 7727.732c2.294 4.509 5.99 8.19 10.5 10.5l3.505-3.505a1.584 1.584 0 0 1 1.625-.383c1.785.59 3.713.908 5.689.908.876 0 1.593.717 1.593 1.594v5.56c0 .877-.717 1.594-1.593 1.594-14.962 0-27.087-12.126-27.087-27.087 0-.877.717-1.594 1.593-1.594h5.577c.876 0 1.593.717 1.593 1.594 0 1.991.319 3.903.908 5.688.176.558.048 1.18-.398 1.625l-3.505 3.506Z" fill="#49d6cb" fill-rule="evenodd" data-name="ic_call_24px"/></svg>