<svg xmlns="http://www.w3.org/2000/svg" width="114.221" height="95.617" viewBox="496 5928 114.221 95.617"><g data-name="Group 202"><path d="M542.594 5981.982v41.635H496v-32.866c0-17.797 2.572-30.679 7.729-38.65 6.758-10.62 17.46-18.655 32.107-24.1l10.62 13.942c-8.855 3.056-15.372 7.608-19.553 13.646-4.19 6.046-6.52 14.84-7 26.393h22.69Z" fill="#49d6cb" fill-rule="evenodd" data-name="Path 1521"/><path d="M606.363 5981.982v41.635h-46.594v-32.866c0-17.797 2.572-30.679 7.725-38.65 6.758-10.62 17.46-18.655 32.106-24.1l10.62 13.942c-8.85 3.056-15.366 7.608-19.552 13.646-4.186 6.046-6.517 14.84-7 26.393h22.695Z" fill="#49d6cb" fill-rule="evenodd" data-name="Path 1522"/></g></svg>