<svg xmlns="http://www.w3.org/2000/svg" width="42.446" height="50" viewBox="470.999 2502 42.446 50"><g data-name="Group 1028"><g data-name="Group 1027"><path d="M498.154 2507.68c.262 0 .524-.1.724-.3l.996-.996a1.023 1.023 0 1 0-1.448-1.447l-.996.996a1.023 1.023 0 0 0 .724 1.747Z" fill="#fff" fill-rule="evenodd" data-name="Path 3215"/></g><g data-name="Group 1026"><path d="M485.574 2507.38a1.019 1.019 0 0 0 1.446 0c.399-.4.399-1.047 0-1.447l-.996-.996a1.022 1.022 0 1 0-1.447 1.447l.997.996Z" fill="#fff" fill-rule="evenodd" data-name="Path 3214"/></g><g data-name="Group 1025"><path d="M492.225 2505.455c.566 0 1.024-.458 1.024-1.024v-1.407a1.023 1.023 0 1 0-2.048 0v1.407c0 .566.458 1.024 1.024 1.024Z" fill="#fff" fill-rule="evenodd" data-name="Path 3213"/></g><g data-name="Group 1024"><path d="M486.518 2513.568a1.02 1.02 0 0 0 1.332-.562 4.756 4.756 0 0 1 1.209-1.727c-.011.106-.033.209-.033.318a3.204 3.204 0 0 0 3.199 3.199 3.202 3.202 0 0 0 3.199-3.2c0-.107-.02-.21-.032-.316.515.467.933 1.05 1.21 1.726a1.021 1.021 0 1 0 1.893-.772 6.745 6.745 0 0 0-6.27-4.22 6.744 6.744 0 0 0-6.27 4.22 1.023 1.023 0 0 0 .563 1.334Zm5.707-.82a1.154 1.154 0 0 1-1.152-1.151 1.153 1.153 0 1 1 1.152 1.152Z" fill="#fff" fill-rule="evenodd" data-name="Path 3212"/></g><g data-name="Group 1023"><path d="M513.312 2513.044a.977.977 0 0 0-.199-1.221.988.988 0 0 0-1.27-.293c-.476.26-11.744 6.42-17.913 12.28a66.146 66.146 0 0 0-1.833 1.815l-7.357-7.084a1.006 1.006 0 0 0-1.415.023l-4.651 4.78a.99.99 0 0 0 .023 1.406l7.734 7.433a60.36 60.36 0 0 0-.884 1.183.987.987 0 0 0-1.181.285l-5.14 6.396c-.021.029-.03.064-.05.095-1.325.224-2.862.733-4.057 1.853-2.581 2.417-4.03 8.263-4.091 8.51a.988.988 0 0 0 .244.917 1.006 1.006 0 0 0 .905.297c.252-.045 6.208-1.13 8.788-3.548.997-.934 1.694-2.281 2.079-3.903.042-.02.086-.033.123-.06l6.727-4.716a.994.994 0 0 0 .42-.713c.002-.038-.013-.073-.013-.11.416-.276.982-.66 1.664-1.144l11.162 10.748a.962.962 0 0 0 .529.248l8.169 3.402a1.009 1.009 0 0 0 1.105-.226.996.996 0 0 0 .191-1.106l-3.686-8.01a.981.981 0 0 0-.266-.518l-10.402-10.014a59.728 59.728 0 0 0 1.54-1.442c6.112-5.928 12.728-17.09 13.005-17.563Zm-32.505 10.968 3.26-3.349 6.66 6.411c-.31.337-.608.667-.895.992l-2.962-2.841a1.002 1.002 0 0 0-1.412.025.99.99 0 0 0 .024 1.407l3.043 2.92c-.3.359-.585.704-.852 1.033l-6.866-6.598Zm-1.213 22.71c-1.341 1.257-4.185 2.186-6.171 2.686.623-1.942 1.727-4.707 3.068-5.965.969-.907 2.335-1.268 3.443-1.404l1.275 1.348c-.203 1.094-.648 2.429-1.615 3.335Zm3.13-4.638-1.392-1.47 3.876-4.826 2.592 2.738-5.077 3.558Zm25.728 6.277.979-1.004.805 1.748-1.784-.744Zm-.885-5.07c.004.008.002.016.006.025l.965 2.098-2.067 2.123-2.139-.891c-.007-.004-.017-.002-.025-.005l-10.709-10.312c.346-.26.701-.533 1.074-.824l9.707 9.344a1 1 0 0 0 .696.28.998.998 0 0 0 .719-.303.99.99 0 0 0-.024-1.407l-9.53-9.175c.337-.28.681-.569 1.03-.868l10.297 9.915Zm-18.423-6.248-2.149-2.27c1.087-1.504 4.16-5.577 8.317-9.524 4.049-3.847 10.58-7.945 14.412-10.21-2.414 3.779-6.792 10.242-10.813 14.144-4.065 3.944-8.186 6.81-9.767 7.86Z" fill="#fff" fill-rule="evenodd" data-name="Path 3211"/></g><g data-name="Group 1022"><path d="M475.757 2521.845a1.018 1.018 0 0 0 1.44-.014l4.806-4.86a1.024 1.024 0 0 0-.015-1.452l-3.268-3.19a4.42 4.42 0 0 0-3.093-1.252c-1.216 0-2.35.481-3.197 1.355a4.456 4.456 0 0 0 .102 6.286l3.225 3.127Zm-1.855-7.99a2.38 2.38 0 0 1 1.725-.73c.626 0 1.217.24 1.667.672l2.528 2.468-3.367 3.405-2.498-2.422a2.404 2.404 0 0 1-.055-3.393Z" fill="#fff" fill-rule="evenodd" data-name="Path 3210"/></g></g></svg>