<svg xmlns="http://www.w3.org/2000/svg" width="52.575" height="45" viewBox="465.67 2075.427 52.575 45"><g data-name="Group 1019"><g data-name="Group 1018"><path d="M511.326 2106.838h-4.646a1.238 1.238 0 1 0 0 2.478h4.646a1.238 1.238 0 1 0 0-2.478Z" fill="#fff" fill-rule="evenodd" data-name="Path 3196"/></g><g data-name="Group 1017"><path d="M511.326 2111.728h-10.532a1.238 1.238 0 1 0 0 2.478h10.532a1.238 1.238 0 1 0 0-2.478Z" fill="#fff" fill-rule="evenodd" data-name="Path 3195"/></g><g data-name="Group 1016"><path d="M472.899 2111.728a1.238 1.238 0 1 0 0 2.478h4.026a1.238 1.238 0 1 0 0-2.478H472.9Z" fill="#fff" fill-rule="evenodd" data-name="Path 3194"/></g><g data-name="Group 1015"><path d="M481.122 2079.396a1.297 1.297 0 0 0 0 2.592 1.297 1.297 0 0 0 0-2.592Z" fill="#fff" fill-rule="evenodd" data-name="Path 3193"/></g><g data-name="Group 1014"><path d="M476.348 2079.396a1.297 1.297 0 1 0 .004 2.593 1.297 1.297 0 0 0-.004-2.593Z" fill="#fff" fill-rule="evenodd" data-name="Path 3192"/></g><g data-name="Group 1013"><path d="M471.601 2079.396a1.297 1.297 0 1 0 .004 2.593 1.297 1.297 0 0 0-.004-2.593Z" fill="#fff" fill-rule="evenodd" data-name="Path 3191"/></g><g data-name="Group 1012"><path d="M489.828 2108.431a1.24 1.24 0 0 0 1.193-.904l4.259-15.178a1.24 1.24 0 0 0-.859-1.528 1.241 1.241 0 0 0-1.527.857l-4.26 15.179a1.238 1.238 0 0 0 1.194 1.574Z" fill="#fff" fill-rule="evenodd" data-name="Path 3190"/></g><g data-name="Group 1011"><path d="M517.013 2089.057a1.23 1.23 0 0 0-1.233 1.229v26.428c0 .692-.565 1.255-1.258 1.255h-45.13a1.257 1.257 0 0 1-1.258-1.255v-26.428c0-.68-.55-1.23-1.232-1.23a1.23 1.23 0 0 0-1.232 1.23v26.428a3.723 3.723 0 0 0 3.723 3.713h45.129a3.723 3.723 0 0 0 3.723-3.713v-26.428c0-.68-.551-1.23-1.232-1.23Z" fill="#fff" fill-rule="evenodd" data-name="Path 3189"/></g><g data-name="Group 1010"><path d="M514.522 2075.427h-45.13c-2.052 0-3.722 1.68-3.722 3.743v5.86c0 .685.551 1.239 1.232 1.239h50.11c.682 0 1.233-.554 1.233-1.24v-5.86c0-2.062-1.67-3.742-3.723-3.742Zm1.258 8.364h-47.646v-4.621c0-.697.563-1.265 1.258-1.265h45.13c.693 0 1.258.568 1.258 1.265v4.62Z" fill="#fff" fill-rule="evenodd" data-name="Path 3188"/></g><g data-name="Group 1009"><path d="M486.947 2094.058a1.24 1.24 0 0 0-1.71-.384l-7.339 4.647a1.248 1.248 0 0 0-.576 1.017c-.007.415.19.807.53 1.044l7.217 5.051a1.24 1.24 0 0 0 1.42-2.03l-5.691-3.983 5.764-3.652c.581-.366.75-1.132.385-1.71Z" fill="#fff" fill-rule="evenodd" data-name="Path 3187"/></g><g data-name="Group 1008"><path d="m506.014 2098.32-7.338-4.645a1.24 1.24 0 1 0-1.326 2.093l5.767 3.651-5.692 3.985a1.238 1.238 0 1 0 1.42 2.03l7.217-5.052a1.236 1.236 0 0 0-.048-2.061Z" fill="#fff" fill-rule="evenodd" data-name="Path 3186"/></g></g></svg>