<svg xmlns="http://www.w3.org/2000/svg" width="35.662" height="35.662" viewBox="321 7807.42 35.662 35.662"><g data-name="Group 234"><g data-name="Group 232"><path d="M338.831 7843.082c-9.832 0-17.831-7.999-17.831-17.83 0-9.833 8-17.832 17.831-17.832 9.832 0 17.83 8 17.83 17.831 0 9.832-7.998 17.831-17.83 17.831Z" fill="#49d6cb" fill-rule="evenodd" data-name="Path 1543"/></g><g data-name="Group 233"><path d="M336.035 7825.336v10.334c0 .148.12.27.27.27h3.837a.27.27 0 0 0 .269-.27v-10.503h2.783c.14 0 .256-.107.267-.246l.268-3.165a.27.27 0 0 0-.268-.292h-3.05v-2.245c0-.526.427-.953.953-.953h2.144a.27.27 0 0 0 .27-.27v-3.163a.27.27 0 0 0-.27-.27h-3.623a3.85 3.85 0 0 0-3.85 3.85v3.051h-1.919a.27.27 0 0 0-.269.27v3.164c0 .149.12.269.27.269h1.918v.169Z" fill="#fff" fill-rule="evenodd" data-name="Path 1544"/></g></g></svg>