<svg xmlns="http://www.w3.org/2000/svg" width="35.429" height="35.43" viewBox="276 7807.867 35.429 35.43"><g data-name="Group 240"><path d="M278.185 7825.332a15.517 15.517 0 1 1 0 .1z" fill="#fff" fill-rule="evenodd" data-name="Ellipse 131"/><g data-name="Group 239"><path d="M293.715 7843.297c-9.768 0-17.715-7.947-17.715-17.715s7.947-17.715 17.715-17.715c9.767 0 17.714 7.947 17.714 17.715s-7.947 17.715-17.714 17.715Zm5.973-24.903a1.311 1.311 0 1 0 0 2.622 1.311 1.311 0 0 0 0-2.622Zm-5.828 1.681a5.513 5.513 0 0 0-5.506 5.507 5.513 5.513 0 0 0 5.506 5.507 5.513 5.513 0 0 0 5.506-5.507 5.513 5.513 0 0 0-5.506-5.507Zm0 9.035a3.531 3.531 0 0 1-3.527-3.528 3.531 3.531 0 0 1 3.527-3.527 3.531 3.531 0 0 1 3.527 3.527 3.531 3.531 0 0 1-3.527 3.528Zm11.11-8.104a6.716 6.716 0 0 0-6.716-6.717h-8.864a6.717 6.717 0 0 0-6.716 6.717v8.865a6.717 6.717 0 0 0 6.716 6.716h8.864a6.716 6.716 0 0 0 6.716-6.716v-8.865Zm-2.103 8.865a4.613 4.613 0 0 1-4.613 4.612h-8.864a4.613 4.613 0 0 1-4.613-4.612v-8.865a4.613 4.613 0 0 1 4.613-4.613h8.864a4.613 4.613 0 0 1 4.613 4.613v8.865Z" fill="#49d6cb" fill-rule="evenodd" data-name="Path 1547"/></g></g></svg>