<svg xmlns="http://www.w3.org/2000/svg" width="35.945" height="35.945" viewBox="613.966 268.094 35.945 35.945"><g data-name="Group 244"><g data-name="Group 241"><path d="M631.939 304.04c-9.91 0-17.973-8.063-17.973-17.974 0-9.91 8.063-17.972 17.973-17.972 9.91 0 17.972 8.063 17.972 17.972 0 9.91-8.062 17.973-17.972 17.973Z" fill="#49d6cb" fill-rule="evenodd" data-name="Path 1548"/></g><g data-name="Group 243"><g data-name="Group 242"><path d="M642.1 287.435v6.71a.3.3 0 0 1-.3.3h-3.465a.3.3 0 0 1-.3-.3v-6.24c0-1.643-.587-2.764-2.059-2.764-1.123 0-1.79.755-2.084 1.486-.108.261-.136.624-.136.99v6.529a.3.3 0 0 1-.3.3h-3.463a.3.3 0 0 1-.3-.3c.008-1.663.043-9.727.007-11.622a.299.299 0 0 1 .3-.304h3.457a.3.3 0 0 1 .3.3v1.433c-.008.014-.02.027-.027.04h.027v-.04c.54-.831 1.503-2.02 3.664-2.02 2.674 0 4.68 1.747 4.68 5.502Zm-18.42 7.01h3.464a.3.3 0 0 0 .3-.3v-11.624a.3.3 0 0 0-.3-.301h-3.464a.3.3 0 0 0-.3.3v11.626a.3.3 0 0 0 .3.3Z" fill="#fff" fill-rule="evenodd" data-name="Path 1549"/></g></g></g></svg>