<svg xmlns="http://www.w3.org/2000/svg" width="41.839" height="50" viewBox="1408 2074 41.839 50"><g data-name="Group 1021"><path d="M1424.254 2117.65h-2.27a1.378 1.378 0 1 0 0 2.755h2.27a1.378 1.378 0 1 0 0-2.756Z" fill="#fff" fill-rule="evenodd" data-name="Path 3209"/><path d="M1443.637 2105.464h-24.25a1.377 1.377 0 1 0 0 2.756h24.25a1.377 1.377 0 1 0 0-2.756Z" fill="#fff" fill-rule="evenodd" data-name="Path 3208"/><path d="M1437.42 2104.515h5.595a1.378 1.378 0 1 0 0-2.756h-5.596a1.378 1.378 0 1 0 0 2.756Z" fill="#fff" fill-rule="evenodd" data-name="Path 3207"/><path d="M1437.901 2100.617h3.731a1.377 1.377 0 1 0 0-2.756h-3.731a1.378 1.378 0 1 0 0 2.756Z" fill="#fff" fill-rule="evenodd" data-name="Path 3206"/><path d="M1443.637 2093.96h-6.218a1.378 1.378 0 1 0 0 2.757h6.218a1.378 1.378 0 1 0 0-2.756Z" fill="#fff" fill-rule="evenodd" data-name="Path 3205"/><path d="M1420.559 2104.765h14.092c.76 0 1.378-.617 1.378-1.378v-8.497c0-.762-.617-1.378-1.378-1.378h-14.092c-.762 0-1.378.616-1.378 1.378v8.497c0 .761.616 1.378 1.378 1.378Zm1.377-8.498h11.337v5.742h-11.337v-5.742Z" fill="#fff" fill-rule="evenodd" data-name="Path 3204"/><path d="M1448.462 2086.722h-33.278c-.76 0-1.378.55-1.378 1.23v22.395c0 .68.617 1.23 1.378 1.23h33.278c.76 0 1.377-.55 1.377-1.23v-22.395c0-.68-.616-1.23-1.377-1.23Zm-1.378 2.46v1.06h-30.522v-1.06h30.522Zm-30.522 19.935v-16.415h30.522v16.415h-30.522Z" fill="#fff" fill-rule="evenodd" data-name="Path 3203"/><path d="M1435.84 2113.482c-.701 0-1.27.582-1.27 1.3v.002h-24.031v-31.569h24.032v.508c0 .718.568 1.3 1.269 1.3s1.27-.582 1.27-1.3v-2.018c0-4.248-3.375-7.705-7.523-7.705h-14.066c-4.146 0-7.52 3.457-7.52 7.705v34.59c0 4.248 3.374 7.705 7.52 7.705h14.066c4.148 0 7.522-3.457 7.522-7.706v-1.512c0-.718-.568-1.3-1.269-1.3Zm-20.319-36.881h14.066c2.382 0 4.373 1.722 4.863 4.013h-23.79c.489-2.29 2.48-4.013 4.861-4.013Zm14.066 44.798h-14.066c-2.382 0-4.372-1.723-4.861-4.014h23.79c-.49 2.291-2.481 4.014-4.863 4.014Z" fill="#fff" fill-rule="evenodd" data-name="Path 3202"/></g></svg>