<svg xmlns="http://www.w3.org/2000/svg" width="84" height="84" viewBox="1702 666.95 84 84"><g data-name="Group 218"><path d="M1710 708.9a34 34 0 1 1 0 .1z" fill="rgba(73,214,203,0.34901960784313724 )" fill-rule="evenodd" data-name="Ellipse 89"/><path d="M1702 708.9a42 42 0 1 1 0 .1z" fill="rgba(73,214,203,0.34901960784313724 )" fill-rule="evenodd" data-name="Ellipse 90"/><path d="M1715 708.9a29 29 0 1 1 0 .1z" fill="#49d6cb" fill-rule="evenodd" data-name="Ellipse 16"/><path d="M1734.373 717.46c1.966 0 3.853-.315 5.615-.897a1.605 1.605 0 0 1 1.604.378l3.46 3.46a23.71 23.71 0 0 0 10.365-10.35l-3.46-3.475a1.544 1.544 0 0 1-.393-1.589c.582-1.761.896-3.648.896-5.614 0-.865.708-1.573 1.573-1.573h5.505c.865 0 1.573.708 1.573 1.573 0 14.768-11.97 26.737-26.738 26.737a1.577 1.577 0 0 1-1.573-1.573v-5.504c0-.865.708-1.573 1.573-1.573Zm12.582-19.66v15.728l-4.718-4.719h-9.437V697.8h14.155Z" fill="#fff" fill-rule="evenodd" data-name="ic_perm_phone_msg_24px"/></g></svg>