<svg xmlns="http://www.w3.org/2000/svg" width="132.299" height="49.148" viewBox="277 10.269 132.299 49.148"><g data-name="Group 35" fill="#49d6cb" fill-rule="evenodd"><g data-name="Group 34"><path d="M396.231 32.174c-.744 0-1.115-.372-1.115-1.116 0-.743.371-1.115 1.115-1.115h11.825c.743 0 1.115.372 1.115 1.115 0 .744-.372 1.116-1.115 1.116h-11.825Zm.128 15.203c-.744 0-1.116-.371-1.116-1.115s.372-1.116 1.116-1.116h11.824c.744 0 1.116.372 1.116 1.116 0 .744-.372 1.115-1.116 1.115H396.36Zm1.115-.829-2.008-1.083 11.857-15.076 1.657 1.402-11.506 14.757Z" data-name="Path 698"/><path d="M385.714 47.377c-.34 0-.633-.122-.877-.366a1.195 1.195 0 0 1-.366-.877v-7.968l-8.67-13.737c-.213-.319-.292-.627-.239-.924a1.25 1.25 0 0 1 .399-.733c.212-.192.478-.287.796-.287.255 0 .463.053.622.159.16.107.303.255.43.446l8.606 13.865h-1.339l8.574-13.8c.148-.235.313-.404.494-.511.18-.106.398-.16.653-.16.298 0 .547.102.75.303.201.203.318.452.35.75.032.297-.048.594-.24.892l-8.7 13.737v7.968c0 .34-.123.633-.367.877a1.196 1.196 0 0 1-.876.366Z" data-name="Path 697"/><path d="M360.343 47.377c-.34 0-.61-.106-.812-.318a1.128 1.128 0 0 1-.32-.765c-.01-.298.101-.585.335-.861l5.865-7.33 1.37 1.816-5.577 7.076c-.191.255-.478.382-.86.382Zm12.622 0c-.255 0-.462-.042-.622-.127-.16-.085-.324-.234-.494-.446l-5.514-7.012-.956-.83-5.546-7.043c-.234-.276-.345-.563-.334-.86.01-.298.111-.558.302-.782.192-.223.468-.334.83-.334.36 0 .668.127.923.382l5.355 6.853.86.701 5.929 7.586c.276.34.393.659.35.956a1.027 1.027 0 0 1-.398.701c-.223.17-.451.255-.685.255Zm-5.163-8.287-1.562-1.593 5.514-6.98a1.29 1.29 0 0 1 .494-.447 1.3 1.3 0 0 1 .558-.127c.36 0 .637.111.828.334.191.224.281.49.271.797-.011.309-.122.6-.335.877l-5.768 7.14Z" data-name="Path 696"/><path d="M339.835 22.408a8.362 8.362 0 0 0-8.356 8.636v.002a1.745 1.745 0 0 0-.006.14v14.947c0 .382.113.686.336.909.223.223.526.335.908.335.36 0 .653-.112.876-.335.223-.223.336-.527.336-.909V36.69a8.335 8.335 0 0 0 5.906 2.441 8.362 8.362 0 0 0 0-16.723Zm-.004 14.347a6.014 6.014 0 0 1-5.902-4.808 5.965 5.965 0 0 1-.116-1.177l.001-.168c.09-3.228 2.748-5.82 6.017-5.82 3.325 0 6.02 2.681 6.02 5.988 0 3.304-2.695 5.985-6.02 5.985Z" data-name="Path 695"/><path d="M353.3 26.628c-.468 0-.872-.17-1.211-.51a1.69 1.69 0 0 1-.51-1.243c0-.53.175-.95.526-1.259a1.8 1.8 0 0 1 1.227-.462c.446 0 .844.154 1.195.462.35.308.526.728.526 1.259 0 .49-.17.903-.51 1.243-.34.34-.755.51-1.243.51Zm.032 20.75c-.383 0-.685-.112-.909-.335-.223-.224-.334-.526-.334-.909V31.186c0-.383.111-.685.334-.909.224-.223.526-.334.909-.334.36 0 .653.111.876.334.223.224.335.526.335.909v14.948c0 .383-.112.685-.335.909-.223.223-.515.334-.876.334Z" data-name="Path 694"/></g><g data-name="Group 33"><path d="M292.054 23.59a.68.68 0 1 1 0 .1z" data-name="Ellipse 80"/><path d="M312.287 40.624a.68.68 0 1 1 0 .1z" data-name="Ellipse 79"/><path d="M299.694 47.881a.68.68 0 1 1 0 .1z" data-name="Ellipse 78"/><path d="M305.673 22.118a.68.68 0 1 1 0 .1z" data-name="Ellipse 77"/><path d="M284.894 32.058a.68.68 0 1 1 0 .1z" data-name="Ellipse 76"/><path d="M310.075 30.064a.68.68 0 1 1 0 .1z" data-name="Ellipse 75"/><path d="M322.796 32.341a1.647 1.647 0 1 1 0 .1z" data-name="Ellipse 74"/><g data-name="Group 32"><path d="M296.168 25.79s1.707-4.116-1.732-5.522c2.149-1.065 3.644-1.4 3.644-1.4s-1.27 3.646 1.854 5.04c-1.29 3.128-3.766 1.881-3.766 1.881Z" data-name="Path 693"/><path d="M296.085 26.365a2.774 2.774 0 1 1 0 .1z" data-name="Ellipse 73"/><path d="M293.38 18.189a2.385 2.385 0 1 1 0 .1z" data-name="Ellipse 72"/></g><g data-name="Group 31"><path d="M304.653 24.53s4.569-.977 3.734-4.782c2.198 1.22 3.378 2.31 3.378 2.31s-3.903 1.076-3.245 4.603c-3.468.748-3.867-2.13-3.867-2.13Z" data-name="Path 692"/><path d="M302.765 27.155a2.908 2.908 0 1 1 0 .1z" data-name="Ellipse 71"/><path d="M308.386 19.617a2.5 2.5 0 1 1 0 .1z" data-name="Ellipse 70"/></g><g data-name="Group 30"><path d="M291.032 32.158s-1.91-4.263-5.457-2.652c.734-2.405 1.554-3.786 1.554-3.786s1.867 3.592 5.178 2.212c1.457 3.235-1.275 4.226-1.275 4.226Z" data-name="Path 691"/><path d="M290.575 30.492a2.908 2.908 0 1 1 0 .1z" data-name="Ellipse 69"/><path d="M282.522 26.967a2.5 2.5 0 1 1 0 .1z" data-name="Ellipse 68"/></g><g data-name="Group 29"><path d="M293.15 40.684s-4.547-1.075-5.423 2.72c-1.464-2.044-2.062-3.535-2.062-3.535s3.987.702 4.904-2.767c3.454.81 2.58 3.582 2.58 3.582Z" data-name="Path 690"/><path d="M290.487 37.685a2.908 2.908 0 1 1 0 .1z" data-name="Ellipse 67"/><path d="M282.954 42.261a2.5 2.5 0 1 1 0 .1z" data-name="Ellipse 66"/></g><g data-name="Group 28"><path d="M300.996 44.057s-3.88 2.601-1.695 5.826c-2.494-.319-3.994-.894-3.994-.894s3.227-2.445 1.308-5.477c2.943-1.98 4.38.545 4.38.545Z" data-name="Path 689"/><path d="M296.13 41.805a2.908 2.908 0 1 1 0 .1z" data-name="Ellipse 65"/><path d="M294.49 50.738a2.5 2.5 0 1 1 0 .1z" data-name="Ellipse 64"/></g><g data-name="Group 27"><path d="M308.842 39.87s.237 4.665 4.126 4.448c-1.555 1.976-2.82 2.966-2.82 2.966s-.439-4.024-4.025-3.937c-.187-3.543 2.719-3.478 2.719-3.478Z" data-name="Path 688"/><path d="M303.081 40.342a2.908 2.908 0 1 1 0 .1z" data-name="Ellipse 63"/><path d="M310.1 46.69a2.5 2.5 0 1 1 0 .1z" data-name="Ellipse 62"/></g><path d="M310.525 31.365s3.747 2.79 6.057-.346c.532 2.458.49 4.063.49 4.063s-3.382-2.226-5.6.594c-2.849-2.114-.947-4.311-.947-4.311Z" data-name="Path 687"/><path d="M306.24 33.827a2.908 2.908 0 1 1 0 .1z" data-name="Ellipse 61"/><path d="M314.261 24.051a2.5 2.5 0 1 1 0 .1z" data-name="Ellipse 60"/><path d="M312.614 13.513a1.647 1.647 0 1 1 0 .1z" data-name="Ellipse 59"/><path d="M292.605 11.866a1.647 1.647 0 1 1 0 .1z" data-name="Ellipse 58"/><path d="M277 25.29a1.647 1.647 0 1 1 0 .1z" data-name="Ellipse 57"/><path d="M278.647 46.234a1.647 1.647 0 1 1 0 .1z" data-name="Ellipse 56"/><path d="M295.055 57.72a1.647 1.647 0 1 1 0 .1z" data-name="Ellipse 55"/><path d="M315.88 51.696a1.647 1.647 0 1 1 0 .1z" data-name="Ellipse 54"/><path d="M315.753 32.779a2.5 2.5 0 1 1 0 .1z" data-name="Ellipse 53"/><path d="M316.04 40.368a2.5 2.5 0 1 1 0 .1z" data-name="Ellipse 52"/><path d="M304.279 52.39a2.5 2.5 0 1 1 0 .1z" data-name="Ellipse 51"/><path d="M287.998 50.382a2.5 2.5 0 1 1 0 .1z" data-name="Ellipse 50"/><path d="M279.782 36.081a2.5 2.5 0 1 1 0 .1z" data-name="Ellipse 49"/><path d="M285.151 20.616a2.5 2.5 0 1 1 0 .1z" data-name="Ellipse 48"/><path d="M300.375 14.683a2.5 2.5 0 1 1 0 .1z" data-name="Ellipse 47"/></g></g></svg>