<svg xmlns="http://www.w3.org/2000/svg" width="192.885" height="71.656" viewBox="277 7541.95 192.885 71.656"><g data-name="Group 217" fill="#1f3440" fill-rule="evenodd"><g data-name="Group 216"><path d="M469.885 7594.403c0 1.084-.54 1.628-1.625 1.628h-17.24c-1.084 0-1.625-.544-1.625-1.628 0-.498.114-.882.345-1.15l-.022-.012 15.243-19.377h-14.128c-1.084 0-1.625-.541-1.625-1.625 0-1.085.54-1.629 1.625-1.629h17.243c1.081 0 1.625.544 1.625 1.629 0 .448-.092.804-.283 1.066l-.009.018a.131.131 0 0 1-.021.027l-15.148 19.428h14.02c1.085 0 1.625.54 1.625 1.625Z" data-name="Path 1535"/><path d="m469.418 7573.305-.009.018.012-.015-.003-.003Z" data-name="Path 1534"/><path d="m449.997 7562.571-12.683 20.03v11.617c0 .495-.182.922-.535 1.278a1.747 1.747 0 0 1-1.278.535c-.498 0-.925-.179-1.278-.535a1.746 1.746 0 0 1-.534-1.278V7582.6l-12.641-20.029c-.31-.464-.427-.912-.348-1.345.077-.433.27-.79.581-1.07.31-.279.697-.417 1.161-.417.372 0 .673.077.906.23.234.157.443.372.627.652l11.572 18.643 11.523-18.551c.218-.342.458-.587.722-.744.26-.153.58-.23.952-.23.433 0 .796.147 1.09.44.296.294.468.66.514 1.093.046.433-.071.866-.35 1.3Z" data-name="Path 1533"/><path d="M418.492 7594.636c-.062.433-.255.774-.58 1.023-.327.249-.658.372-1 .372-.371 0-.672-.062-.906-.188-.233-.122-.473-.34-.718-.648l-7.643-9.72-7.88 9.997c-.28.371-.697.559-1.253.559-.498 0-.891-.157-1.186-.467a1.638 1.638 0 0 1-.464-1.115c-.015-.433.148-.851.489-1.254l8.03-10.036-7.613-9.667c-.34-.402-.503-.82-.488-1.253a1.8 1.8 0 0 1 .442-1.14c.277-.326.68-.489 1.208-.489.525 0 .976.188 1.348.56l7.502 9.602 7.366-9.323c.218-.31.458-.528.722-.651.261-.123.535-.188.811-.188.529 0 .931.163 1.21.489.277.326.41.713.394 1.161-.016.452-.178.876-.489 1.278l-7.732 9.572 7.92 10.131c.402.498.571.962.51 1.395Z" data-name="Path 1532"/><path d="M368.611 7559.626c-6.733 0-12.191 5.458-12.191 12.19 0 .136.002.269.008.401v.003a2.535 2.535 0 0 0-.008.203v21.794c0 .556.164.999.489 1.324.325.325.767.49 1.324.49.526 0 .952-.165 1.277-.49.326-.325.49-.768.49-1.324v-13.768a12.153 12.153 0 0 0 8.611 3.56c6.733 0 12.191-5.46 12.191-12.192 0-6.733-5.458-12.191-12.191-12.191Zm-.005 20.917c-4.256 0-7.803-3.013-8.607-7.009a8.7 8.7 0 0 1-.169-1.717c0-.08 0-.161.003-.245.13-4.706 4.007-8.483 8.773-8.483 4.846 0 8.775 3.907 8.775 8.728 0 4.818-3.929 8.726-8.775 8.726Z" data-name="Path 1531"/><path d="M388.242 7565.779c-.682 0-1.27-.248-1.765-.744a2.462 2.462 0 0 1-.744-1.812c0-.774.255-1.386.767-1.836a2.627 2.627 0 0 1 1.789-.673c.65 0 1.231.224 1.742.673.512.45.767 1.062.767 1.836 0 .713-.248 1.317-.744 1.812-.495.496-1.1.744-1.812.744Zm.047 30.25c-.558 0-1-.162-1.325-.487-.325-.325-.487-.767-.487-1.324v-21.794c0-.558.162-1 .487-1.325.326-.325.767-.488 1.325-.488.526 0 .952.163 1.278.488.325.326.487.767.487 1.325v21.794c0 .557-.162.999-.487 1.324-.326.325-.752.488-1.278.488Z" data-name="Path 1530"/></g><g data-name="Group 215"><path d="M298.948 7557.395a.993.993 0 1 1 0 .1z" data-name="Ellipse 130"/><path d="M329.447 7589.23a.993.993 0 1 1 0 .1z" data-name="Ellipse 129"/><path d="M294.087 7591.81a.993.993 0 1 1 0 .1z" data-name="Ellipse 144"/><path d="M310.087 7596.81a.993.993 0 1 1 0 .1z" data-name="Ellipse 128"/><path d="M318.804 7556.249a.993.993 0 1 1 0 .1z" data-name="Ellipse 127"/><path d="M287.51 7572.741a.993.993 0 1 1 0 .1z" data-name="Ellipse 126"/><path d="M331.222 7570.833a.993.993 0 1 1 0 .1z" data-name="Ellipse 125"/><path d="M343.768 7574.154a2.401 2.401 0 1 1 0 .1z" data-name="Ellipse 124"/><g data-name="Group 214"><path d="M304.946 7564.556s2.488-6-2.525-8.05c3.133-1.553 5.312-2.041 5.312-2.041s-1.852 5.315 2.704 7.347c-1.882 4.56-5.491 2.744-5.491 2.744Z" data-name="Path 1529"/><path d="M304.825 7565.44a4.044 4.044 0 1 1 0 .1z" data-name="Ellipse 123"/><path d="M300.882 7553.52a3.477 3.477 0 1 1 0 .1z" data-name="Ellipse 122"/></g><g data-name="Group 213"><path d="M317.317 7562.721s6.66-1.426 5.443-6.973c3.206 1.779 4.926 3.369 4.926 3.369s-5.69 1.567-4.73 6.71c-5.057 1.091-5.639-3.106-5.639-3.106Z" data-name="Path 1528"/><path d="M314.564 7566.593a4.24 4.24 0 1 1 0 .1z" data-name="Ellipse 121"/><path d="M322.76 7555.603a3.646 3.646 0 1 1 0 .1z" data-name="Ellipse 120"/></g><g data-name="Group 212"><path d="M297.458 7573.841s-2.785-6.216-7.956-3.866c1.07-3.507 2.266-5.52 2.266-5.52s2.721 5.237 7.55 3.224c2.123 4.717-1.86 6.162-1.86 6.162Z" data-name="Path 1527"/><path d="M296.791 7571.458a4.24 4.24 0 1 1 0 .1z" data-name="Ellipse 119"/><path d="M285.05 7566.319a3.646 3.646 0 1 1 0 .1z" data-name="Ellipse 118"/></g><g data-name="Group 211"><path d="M300.546 7586.271s-6.63-1.566-7.907 3.967c-2.133-2.98-3.006-5.154-3.006-5.154s5.813 1.023 7.15-4.035c5.036 1.18 3.763 5.222 3.763 5.222Z" data-name="Path 1526"/><path d="M296.664 7581.945a4.24 4.24 0 1 1 0 .1z" data-name="Ellipse 117"/><path d="M285.68 7588.617a3.646 3.646 0 1 1 0 .1z" data-name="Ellipse 116"/></g><g data-name="Group 210"><path d="M311.985 7591.19s-5.658 3.792-2.471 8.493c-3.636-.464-5.823-1.303-5.823-1.303s4.704-3.565 1.906-7.985c4.292-2.888 6.388.794 6.388.794Z" data-name="Path 1525"/><path d="M304.891 7587.951a4.24 4.24 0 1 1 0 .1z" data-name="Ellipse 115"/><path d="M302.5 7600.976a3.646 3.646 0 1 1 0 .1z" data-name="Ellipse 114"/></g><g data-name="Group 209"><path d="M323.424 7585.084s.345 6.803 6.016 6.485c-2.267 2.881-4.112 4.325-4.112 4.325s-.64-5.867-5.869-5.74c-.271-5.165 3.965-5.07 3.965-5.07Z" data-name="Path 1524"/><path d="M315.026 7585.819a4.24 4.24 0 1 1 0 .1z" data-name="Ellipse 113"/><path d="M325.257 7595.075a3.646 3.646 0 1 1 0 .1z" data-name="Ellipse 112"/></g><path d="M325.877 7572.684s5.464 4.069 8.832-.503c.776 3.582.714 5.924.714 5.924s-4.93-3.246-8.164.866c-4.154-3.082-1.382-6.287-1.382-6.287Z" data-name="Path 1523"/><path d="M319.63 7576.32a4.24 4.24 0 1 1 0 .1z" data-name="Ellipse 111"/><path d="M331.326 7562.067a3.646 3.646 0 1 1 0 .1z" data-name="Ellipse 110"/><path d="M328.924 7546.703a2.401 2.401 0 1 1 0 .1z" data-name="Ellipse 109"/><path d="M299.751 7544.301a2.401 2.401 0 1 1 0 .1z" data-name="Ellipse 108"/><path d="M277 7563.874a2.401 2.401 0 1 1 0 .1z" data-name="Ellipse 107"/><path d="M279.401 7594.41a2.401 2.401 0 1 1 0 .1z" data-name="Ellipse 106"/><path d="M303.323 7611.154a2.401 2.401 0 1 1 0 .1z" data-name="Ellipse 105"/><path d="M333.686 7602.372a2.401 2.401 0 1 1 0 .1z" data-name="Ellipse 104"/><path d="M333.5 7574.792a3.646 3.646 0 1 1 0 .1z" data-name="Ellipse 103"/><path d="M333.919 7585.856a3.646 3.646 0 1 1 0 .1z" data-name="Ellipse 102"/><path d="M316.772 7603.384a3.646 3.646 0 1 1 0 .1z" data-name="Ellipse 101"/><path d="M293.034 7600.457a3.646 3.646 0 1 1 0 .1z" data-name="Ellipse 100"/><path d="M281.056 7579.607a3.646 3.646 0 1 1 0 .1z" data-name="Ellipse 99"/><path d="M288.884 7557.059a3.646 3.646 0 1 1 0 .1z" data-name="Ellipse 98"/><path d="M311.08 7548.408a3.646 3.646 0 1 1 0 .1z" data-name="Ellipse 97"/></g></g></svg>