<svg xmlns="http://www.w3.org/2000/svg" width="59.713" height="50" viewBox="1399 2502 59.713 50"><g data-name="Group 1034"><g data-name="Group 1033"><path d="M1452.002 2531.262a1.57 1.57 0 0 0-2.21.119 1.564 1.564 0 0 0 .119 2.21l2.333 2.095c.3.27.673.4 1.046.4a1.564 1.564 0 0 0 1.046-2.73l-2.334-2.094Z" fill="#fff" fill-rule="evenodd" data-name="Path 3222"/></g><g data-name="Group 1032"><path d="M1450.957 2511.474c.372 0 .749-.132 1.045-.4l2.333-2.096a1.563 1.563 0 0 0 .12-2.21 1.564 1.564 0 0 0-2.211-.12l-2.333 2.095a1.564 1.564 0 0 0 1.046 2.73Z" fill="#fff" fill-rule="evenodd" data-name="Path 3221"/></g><g data-name="Group 1031"><path d="M1457.148 2519.506h-3.544c-.868 0-1.565.7-1.565 1.566 0 .865.697 1.566 1.565 1.566h3.544a1.564 1.564 0 1 0 0-3.132Z" fill="#fff" fill-rule="evenodd" data-name="Path 3220"/></g><g data-name="Group 1030"><path d="M1439.828 2513.865v-10.356c0-.583-.333-1.114-.856-1.364a1.486 1.486 0 0 0-1.588.197c-.105.089-10.85 8.807-27.085 8.93 0 0-.018.007-.026.007h-3.425c-4.327 0-7.848 3.553-7.848 7.92v4.985c0 4.363 3.521 7.914 7.848 7.914h2.254l2.537 15.786c.038.168 1.019 4.116 7.302 4.116 2.377 0 4.038-.625 4.937-1.856.879-1.202.674-2.498.575-2.92l-2.388-13.518c9.31 2.56 15.252 7.251 15.334 7.319a1.484 1.484 0 0 0 1.582.183c.517-.254.847-.781.847-1.362v-9.443c3.906-.686 6.887-4.13 6.887-8.267 0-4.143-2.98-7.584-6.887-8.27Zm-37.838 10.319v-4.986c0-2.704 2.178-4.902 4.858-4.902h4.198c.059 0 .109-.03.167-.036a49.907 49.907 0 0 0 14.74-2.619v20.077c-4.026-1.382-8.822-2.455-14.2-2.623v-9.36a1.5 1.5 0 0 0-1.495-1.509c-.826 0-1.495.675-1.495 1.509v9.346h-1.915c-2.68 0-4.858-2.199-4.858-4.897Zm19.558 23.756c.006.026.053.253-.084.427-.24.298-1.022.616-2.523.616-3.515 0-4.277-1.514-4.388-1.791l-2.415-15.053c2.374.103 4.64.38 6.756.804l2.654 14.997Zm15.29-10.987c-1.772-1.146-4.467-2.69-7.894-4.107v-22.319c3.448-1.414 6.131-2.955 7.894-4.101v30.527Zm2.99-9.655v-10.327a5.367 5.367 0 0 1 3.897 5.165 5.366 5.366 0 0 1-3.897 5.162Z" fill="#fff" fill-rule="evenodd" data-name="Path 3219"/></g></g></svg>