<svg xmlns="http://www.w3.org/2000/svg" width="35.662" height="35.662" viewBox="366 7807.42 35.662 35.662"><g data-name="Group 231"><g data-name="Group 223"><path d="M383.83 7843.082c-9.831 0-17.83-7.999-17.83-17.83 0-9.833 7.999-17.832 17.83-17.832 9.833 0 17.832 8 17.832 17.831 0 9.832-7.999 17.831-17.831 17.831Z" fill="#49d6cb" fill-rule="evenodd" data-name="Path 1536"/></g><g data-name="Group 230"><g data-name="Group 225"><path d="M394.079 7818.743c-.66.3-1.387.48-2.1.6.338-.057.837-.669 1.037-.916a3.87 3.87 0 0 0 .699-1.273c.018-.037.032-.082-.005-.11-.046-.018-.075-.009-.11.01-.796.426-1.62.735-2.495.954a.166.166 0 0 1-.171-.046c-.073-.082-.14-.159-.219-.223a4.413 4.413 0 0 0-1.208-.74 4.207 4.207 0 0 0-1.852-.299 4.428 4.428 0 0 0-1.758.497c-.545.285-1.03.68-1.418 1.158a4.368 4.368 0 0 0-.847 1.696c-.146.598-.134 1.188-.044 1.791.013.1.004.114-.087.1-3.425-.51-6.264-1.735-8.569-4.361-.1-.114-.154-.114-.236.009-1.009 1.511-.52 3.94.74 5.134.169.158.341.318.527.463-.068.014-.906-.077-1.653-.463-.1-.064-.15-.027-.16.086-.009.163.005.314.028.491.193 1.532 1.255 2.95 2.708 3.503.172.072.363.136.55.168-.332.072-.673.124-1.622.05-.119-.023-.164.036-.119.15.714 1.945 2.254 2.523 3.407 2.853.155.027.31.027.464.064-.009.013-.018.013-.027.027-.382.583-1.71 1.017-2.327 1.234-1.123.392-2.347.569-3.534.452-.19-.028-.23-.027-.282 0-.052.032-.006.077.055.126.24.16.486.3.736.437.754.4 1.54.718 2.362.945 4.246 1.172 9.029.311 12.216-2.856 2.504-2.488 3.381-5.918 3.381-9.352 0-.135.159-.21.254-.28.651-.489 1.168-1.075 1.655-1.729.109-.147.101-.278.101-.331v-.019c0-.054.008-.037-.077 0Z" fill="#fff" fill-rule="evenodd" data-name="Path 1538"/></g><g data-name="Group 226"><path d="M379.546 7833.737c1.76 0 .084 0 0 0 .231 0-.01 0 0 0Z" fill="#fff" fill-rule="evenodd" data-name="Path 1539"/></g><g data-name="Group 227"><path d="M379.546 7833.737c-.027.002-.343 0 0 0 0 0-.055 0 0 0Z" fill="#fff" fill-rule="evenodd" data-name="Path 1540"/></g><g data-name="Group 228"><path d="M380.246 7833.755c0-.035.368 0 0 0 0-.018.045 0 0 0Z" fill="#fff" fill-rule="evenodd" data-name="Path 1541"/></g><g data-name="Group 229"><path d="M387.596 7816.717c-.022.018-.054.018-.086 0h.086Z" fill="#fff" fill-rule="evenodd" data-name="Path 1542"/></g></g></g></svg>