<svg xmlns="http://www.w3.org/2000/svg" width="35.662" height="35.663" viewBox="457 7807.924 35.662 35.663"><g data-name="Group 238"><g data-name="Group 235"><path d="M474.831 7843.587c-9.832 0-17.831-8-17.831-17.832s7.999-17.831 17.831-17.831 17.83 8 17.83 17.831c0 9.832-7.998 17.832-17.83 17.832Z" fill="#49d6cb" fill-rule="evenodd" data-name="Path 1545"/></g><g data-name="Group 237"><g data-name="Group 236"><path d="M485.507 7823.051a4.58 4.58 0 0 0-4.579-4.58h-11.877a4.58 4.58 0 0 0-4.579 4.58v5.566a4.58 4.58 0 0 0 4.58 4.58h11.876a4.58 4.58 0 0 0 4.58-4.58v-5.566Zm-7.493 3.064-4.736 2.597c-.206.112-.392-.037-.392-.272v-5.332c0-.237.191-.386.398-.269l4.769 2.735c.21.12.174.425-.039.54Z" fill="#fff" fill-rule="evenodd" data-name="Path 1546"/></g></g></g></svg>